<svg xmlns="http://www.w3.org/2000/svg" viewBox="0 0 480 56" fill="none" aria-hidden="true">
  <!-- Garis utama kiri -->
  <path d="M0 28 Q60 28 120 28" stroke="currentColor" stroke-width="0.6" opacity="0.3"/>
  <!-- Garis tipis kiri -->
  <path d="M0 24 Q60 24 108 24" stroke="currentColor" stroke-width="0.3" opacity="0.15"/>
  <path d="M0 32 Q60 32 108 32" stroke="currentColor" stroke-width="0.3" opacity="0.15"/>

  <!-- Diamond kiri -->
  <path d="M118 28 L122 24 L126 28 L122 32Z" fill="currentColor" opacity="0.45"/>
  <path d="M130 28 L133 25 L136 28 L133 31Z" fill="currentColor" opacity="0.3"/>
  <path d="M140 28 L142 26 L144 28 L142 30Z" fill="currentColor" opacity="0.2"/>

  <!-- Ornamen tengah — bunga lotus geometris -->
  <g transform="translate(240,28)">
    <!-- Lingkaran luar -->
    <circle cx="0" cy="0" r="18" stroke="currentColor" stroke-width="0.5" opacity="0.2"/>
    <circle cx="0" cy="0" r="13" stroke="currentColor" stroke-width="0.4" opacity="0.15"/>
    <!-- Kelopak 8 arah -->
    <path d="M0-18 C3-12 3-8 0-5 C-3-8 -3-12 0-18Z" fill="currentColor" opacity="0.35"/>
    <path d="M0 18 C-3 12 -3 8 0 5 C3 8 3 12 0 18Z" fill="currentColor" opacity="0.35"/>
    <path d="M-18 0 C-12-3 -8-3 -5 0 C-8 3 -12 3 -18 0Z" fill="currentColor" opacity="0.35"/>
    <path d="M18 0 C12 3 8 3 5 0 C8-3 12-3 18 0Z" fill="currentColor" opacity="0.35"/>
    <path d="M-12-12 C-7-10 -5-7 -3-3 C-7-5 -10-7 -12-12Z" fill="currentColor" opacity="0.25"/>
    <path d="M12-12 C10-7 7-5 3-3 C5-7 7-10 12-12Z" fill="currentColor" opacity="0.25"/>
    <path d="M12 12 C7 10 5 7 3 3 C7 5 10 7 12 12Z" fill="currentColor" opacity="0.25"/>
    <path d="M-12 12 C-10 7 -7 5 -3 3 C-5 7 -7 10 -12 12Z" fill="currentColor" opacity="0.25"/>
    <!-- Inti -->
    <circle cx="0" cy="0" r="4" fill="currentColor" opacity="0.6"/>
    <circle cx="0" cy="0" r="2" fill="currentColor" opacity="0.9"/>
    <!-- Bintang inti -->
    <path d="M0-6 L1-1 L6 0 L1 1 L0 6 L-1 1 L-6 0 L-1-1Z" fill="currentColor" opacity="0.3"/>
  </g>

  <!-- Diamond kanan -->
  <path d="M336 28 L338 26 L340 28 L338 30Z" fill="currentColor" opacity="0.2"/>
  <path d="M344 28 L347 25 L350 28 L347 31Z" fill="currentColor" opacity="0.3"/>
  <path d="M354 28 L358 24 L362 28 L358 32Z" fill="currentColor" opacity="0.45"/>

  <!-- Garis utama kanan -->
  <path d="M360 28 Q420 28 480 28" stroke="currentColor" stroke-width="0.6" opacity="0.3"/>
  <path d="M372 24 Q420 24 480 24" stroke="currentColor" stroke-width="0.3" opacity="0.15"/>
  <path d="M372 32 Q420 32 480 32" stroke="currentColor" stroke-width="0.3" opacity="0.15"/>

  <!-- Titik aksen -->
  <circle cx="200" cy="28" r="1.5" fill="currentColor" opacity="0.25"/>
  <circle cx="214" cy="28" r="1" fill="currentColor" opacity="0.2"/>
  <circle cx="280" cy="28" r="1" fill="currentColor" opacity="0.2"/>
  <circle cx="266" cy="28" r="1.5" fill="currentColor" opacity="0.25"/>
</svg>
